<?xml version="1.0" encoding="UTF-8"?>
<svg xmlns="http://www.w3.org/2000/svg" xmlns:xlink="http://www.w3.org/1999/xlink" viewBox="0 -3.543 48.584 39.681">
<defs>
<clipPath id="clip-0">
<path clip-rule="nonzero" d="M 30 0 L 48.585938 0 L 48.585938 18 L 30 18 Z M 30 0 "/>
</clipPath>
<clipPath id="clip-1">
<path clip-rule="nonzero" d="M 30 14 L 48.585938 14 L 48.585938 32.59375 L 30 32.59375 Z M 30 14 "/>
</clipPath>
<clipPath id="clip-2">
<path clip-rule="nonzero" d="M 0 14 L 18 14 L 18 32.59375 L 0 32.59375 Z M 0 14 "/>
</clipPath>
</defs>
<path fill-rule="nonzero" fill="rgb(79.998779%, 100%, 79.998779%)" fill-opacity="1" stroke-width="0.3985" stroke-linecap="butt" stroke-linejoin="miter" stroke="rgb(0%, 0%, 0%)" stroke-opacity="1" stroke-miterlimit="10" d="M 5.667844 0.001125 C 5.667844 3.130031 3.132688 5.669094 -0.000125 5.669094 C -3.132937 5.669094 -5.668094 3.130031 -5.668094 0.001125 C -5.668094 -3.131687 -3.132937 -5.67075 -0.000125 -5.67075 C 3.132688 -5.67075 5.667844 -3.131687 5.667844 0.001125 Z M 5.667844 0.001125 " transform="matrix(1, 0, 0, -1, 16.297, 16.298)"/>
<path fill-rule="nonzero" fill="rgb(100%, 53.33252%, 53.33252%)" fill-opacity="1" stroke-width="0.3985" stroke-linecap="butt" stroke-linejoin="miter" stroke="rgb(0%, 0%, 0%)" stroke-opacity="1" stroke-miterlimit="10" d="M 5.671031 0.001125 C 5.671031 3.130031 3.131969 5.669094 -0.00084375 5.669094 C -3.12975 5.669094 -5.668812 3.130031 -5.668812 0.001125 C -5.668812 -3.131687 -3.12975 -5.67075 -0.00084375 -5.67075 C 3.131969 -5.67075 5.671031 -3.131687 5.671031 0.001125 Z M 5.671031 0.001125 " transform="matrix(1, 0, 0, -1, 32.286, 16.298)"/>
<path fill="none" stroke-width="0.3985" stroke-linecap="butt" stroke-linejoin="miter" stroke="rgb(0%, 0%, 0%)" stroke-opacity="1" stroke-miterlimit="10" d="M -18.116219 10.122219 L -12.002937 4.008938 " transform="matrix(1, 0, 0, -1, 24.292, 16.298)"/>
<path fill="none" stroke-width="0.3985" stroke-linecap="butt" stroke-linejoin="miter" stroke="rgb(0%, 0%, 0%)" stroke-opacity="1" stroke-miterlimit="10" d="M -2.327156 0.001125 L 2.325188 0.001125 " transform="matrix(1, 0, 0, -1, 24.292, 16.298)"/>
<g clip-path="url(#clip-0)">
<path fill="none" stroke-width="0.3985" stroke-linecap="butt" stroke-linejoin="miter" stroke="rgb(0%, 0%, 0%)" stroke-opacity="1" stroke-miterlimit="10" d="M 12.004875 4.008938 L 18.11425 10.122219 " transform="matrix(1, 0, 0, -1, 24.292, 16.298)"/>
</g>
<g clip-path="url(#clip-1)">
<path fill="none" stroke-width="0.3985" stroke-linecap="butt" stroke-linejoin="miter" stroke="rgb(0%, 0%, 0%)" stroke-opacity="1" stroke-miterlimit="10" d="M 12.004875 -4.010594 L 18.11425 -10.119969 " transform="matrix(1, 0, 0, -1, 24.292, 16.298)"/>
</g>
<g clip-path="url(#clip-2)">
<path fill="none" stroke-width="0.3985" stroke-linecap="butt" stroke-linejoin="miter" stroke="rgb(0%, 0%, 0%)" stroke-opacity="1" stroke-miterlimit="10" d="M -18.116219 -10.119969 L -12.002937 -4.010594 " transform="matrix(1, 0, 0, -1, 24.292, 16.298)"/>
</g>
</svg>
