<?xml version="1.0" encoding="UTF-8"?>
<svg xmlns="http://www.w3.org/2000/svg" xmlns:xlink="http://www.w3.org/1999/xlink" viewBox="0 0 44.132 55.67">
<defs>
<clipPath id="clip-0">
<path clip-rule="nonzero" d="M 20 32 L 44 32 L 44 55.671875 L 20 55.671875 Z M 20 32 "/>
</clipPath>
</defs>
<path fill-rule="nonzero" fill="rgb(79.998779%, 100%, 79.998779%)" fill-opacity="1" stroke-width="0.3985" stroke-linecap="butt" stroke-linejoin="miter" stroke="rgb(0%, 0%, 0%)" stroke-opacity="1" stroke-miterlimit="10" d="M 5.671031 -0.00165625 C 5.671031 3.131156 3.131969 5.670219 -0.00084375 5.670219 C -3.12975 5.670219 -5.668813 3.131156 -5.668813 -0.00165625 C -5.668813 -3.130562 -3.12975 -5.669625 -0.00084375 -5.669625 C 3.131969 -5.669625 5.671031 -3.130562 5.671031 -0.00165625 Z M 5.671031 -0.00165625 " transform="matrix(1, 0, 0, -1, 32.286, 11.846)"/>
<path fill-rule="nonzero" fill="rgb(79.998779%, 100%, 79.998779%)" fill-opacity="1" stroke-width="0.3985" stroke-linecap="butt" stroke-linejoin="miter" stroke="rgb(0%, 0%, 0%)" stroke-opacity="1" stroke-miterlimit="10" d="M 5.667844 -0.0009375 C 5.667844 3.131875 3.132688 5.670938 -0.000125 5.670938 C -3.132937 5.670938 -5.668094 3.131875 -5.668094 -0.0009375 C -5.668094 -3.129844 -3.132937 -5.668906 -0.000125 -5.668906 C 3.132688 -5.668906 5.667844 -3.129844 5.667844 -0.0009375 Z M 5.667844 -0.0009375 " transform="matrix(1, 0, 0, -1, 16.297, 27.835)"/>
<path fill-rule="nonzero" fill="rgb(79.998779%, 100%, 79.998779%)" fill-opacity="1" stroke-width="0.3985" stroke-linecap="butt" stroke-linejoin="miter" stroke="rgb(0%, 0%, 0%)" stroke-opacity="1" stroke-miterlimit="10" d="M 5.671031 -0.0009375 C 5.671031 3.131875 3.131969 5.670938 -0.00084375 5.670938 C -3.12975 5.670938 -5.668813 3.131875 -5.668813 -0.0009375 C -5.668813 -3.129844 -3.12975 -5.668906 -0.00084375 -5.668906 C 3.131969 -5.668906 5.671031 -3.129844 5.671031 -0.0009375 Z M 5.671031 -0.0009375 " transform="matrix(1, 0, 0, -1, 32.286, 27.835)"/>
<path fill-rule="nonzero" fill="rgb(79.998779%, 100%, 79.998779%)" fill-opacity="1" d="M 37.957031 43.824219 C 37.957031 40.691406 35.417969 38.15625 32.285156 38.15625 C 29.15625 38.15625 26.617188 40.691406 26.617188 43.824219 C 26.617188 46.957031 29.15625 49.492188 32.285156 49.492188 C 35.417969 49.492188 37.957031 46.957031 37.957031 43.824219 Z M 37.957031 43.824219 "/>
<g clip-path="url(#clip-0)">
<path fill="none" stroke-width="0.3985" stroke-linecap="butt" stroke-linejoin="miter" stroke="rgb(0%, 0%, 0%)" stroke-opacity="1" stroke-miterlimit="10" d="M 5.671031 -0.00021875 C 5.671031 3.132594 3.131969 5.66775 -0.00084375 5.66775 C -3.12975 5.66775 -5.668813 3.132594 -5.668813 -0.00021875 C -5.668813 -3.133031 -3.12975 -5.668188 -0.00084375 -5.668188 C 3.131969 -5.668188 5.671031 -3.133031 5.671031 -0.00021875 Z M 5.671031 -0.00021875 " transform="matrix(1, 0, 0, -1, 32.286, 43.824)"/>
</g>
<path fill="none" stroke-width="0.3985" stroke-linecap="butt" stroke-linejoin="miter" stroke="rgb(0%, 0%, 0%)" stroke-opacity="1" stroke-miterlimit="10" d="M -15.990219 -0.0009375 L -11.537094 -0.0009375 " transform="matrix(1, 0, 0, -1, 22.166, 27.835)"/>
<path fill="none" stroke-width="0.3985" stroke-linecap="butt" stroke-linejoin="miter" stroke="rgb(0%, 0%, 0%)" stroke-opacity="1" stroke-miterlimit="10" d="M -0.201156 -0.0009375 L 4.451187 -0.0009375 " transform="matrix(1, 0, 0, -1, 22.166, 27.835)"/>
<path fill-rule="nonzero" fill="rgb(100%, 100%, 0%)" fill-opacity="1" stroke-width="0.3985" stroke-linecap="butt" stroke-linejoin="miter" stroke="rgb(0%, 0%, 0%)" stroke-opacity="1" stroke-miterlimit="10" d="M -0.0019375 -2.125937 L 4.251969 -2.125937 L 4.251969 2.124063 L -0.0019375 2.124063 Z M -0.0019375 -2.125937 " transform="matrix(1, 0, 0, -1, 22.166, 27.835)"/>
<path fill="none" stroke-width="0.3985" stroke-linecap="butt" stroke-linejoin="miter" stroke="rgb(0%, 0%, 0%)" stroke-opacity="1" stroke-miterlimit="10" d="M 10.119156 5.670938 L 10.119156 10.319375 " transform="matrix(1, 0, 0, -1, 22.166, 27.835)"/>
<path fill-rule="nonzero" fill="rgb(100%, 100%, 0%)" fill-opacity="1" stroke-width="0.3985" stroke-linecap="butt" stroke-linejoin="miter" stroke="rgb(0%, 0%, 0%)" stroke-opacity="1" stroke-miterlimit="10" d="M 7.994156 5.870156 L 12.248062 5.870156 L 12.248062 10.120156 L 7.994156 10.120156 Z M 7.994156 5.870156 " transform="matrix(1, 0, 0, -1, 22.166, 27.835)"/>
<path fill="none" stroke-width="0.3985" stroke-linecap="butt" stroke-linejoin="miter" stroke="rgb(0%, 0%, 0%)" stroke-opacity="1" stroke-miterlimit="10" d="M 10.119156 -5.668906 L 10.119156 -10.32125 " transform="matrix(1, 0, 0, -1, 22.166, 27.835)"/>
<path fill-rule="nonzero" fill="rgb(100%, 100%, 0%)" fill-opacity="1" stroke-width="0.3985" stroke-linecap="butt" stroke-linejoin="miter" stroke="rgb(0%, 0%, 0%)" stroke-opacity="1" stroke-miterlimit="10" d="M 7.994156 -10.122031 L 12.248062 -10.122031 L 12.248062 -5.868125 L 7.994156 -5.868125 Z M 7.994156 -10.122031 " transform="matrix(1, 0, 0, -1, 22.166, 27.835)"/>
</svg>
