<?xml version="1.0" encoding="UTF-8"?>
<svg xmlns="http://www.w3.org/2000/svg" xmlns:xlink="http://www.w3.org/1999/xlink" viewBox="0 0 28.143 39.681">
<defs>
<clipPath id="clip-0">
<path clip-rule="nonzero" d="M 4 16 L 28 16 L 28 39.679688 L 4 39.679688 Z M 4 16 "/>
</clipPath>
</defs>
<path fill-rule="nonzero" fill="rgb(79.998779%, 100%, 79.998779%)" fill-opacity="1" stroke-width="0.3985" stroke-linecap="butt" stroke-linejoin="miter" stroke="rgb(0%, 0%, 0%)" stroke-opacity="1" stroke-miterlimit="10" d="M 5.667844 -0.00165625 C 5.667844 3.131156 3.132688 5.670219 -0.000125 5.670219 C -3.132937 5.670219 -5.668094 3.131156 -5.668094 -0.00165625 C -5.668094 -3.130563 -3.132937 -5.669625 -0.000125 -5.669625 C 3.132688 -5.669625 5.667844 -3.130563 5.667844 -0.00165625 Z M 5.667844 -0.00165625 " transform="matrix(1, 0, 0, -1, 16.297, 11.846)"/>
<path fill-rule="nonzero" fill="rgb(79.998779%, 100%, 79.998779%)" fill-opacity="1" d="M 21.964844 27.835938 C 21.964844 24.703125 19.429688 22.164062 16.296875 22.164062 C 13.164062 22.164062 10.628906 24.703125 10.628906 27.835938 C 10.628906 30.964844 13.164062 33.503906 16.296875 33.503906 C 19.429688 33.503906 21.964844 30.964844 21.964844 27.835938 Z M 21.964844 27.835938 "/>
<g clip-path="url(#clip-0)">
<path fill="none" stroke-width="0.3985" stroke-linecap="butt" stroke-linejoin="miter" stroke="rgb(0%, 0%, 0%)" stroke-opacity="1" stroke-miterlimit="10" d="M 5.667844 -0.0009375 C 5.667844 3.131875 3.132688 5.670937 -0.000125 5.670937 C -3.132937 5.670937 -5.668094 3.131875 -5.668094 -0.0009375 C -5.668094 -3.129844 -3.132937 -5.668906 -0.000125 -5.668906 C 3.132688 -5.668906 5.667844 -3.129844 5.667844 -0.0009375 Z M 5.667844 -0.0009375 " transform="matrix(1, 0, 0, -1, 16.297, 27.835)"/>
</g>
<path fill="none" stroke-width="0.3985" stroke-linecap="butt" stroke-linejoin="miter" stroke="rgb(0%, 0%, 0%)" stroke-opacity="1" stroke-miterlimit="10" d="M -7.995219 7.99625 L -3.542094 7.99625 " transform="matrix(1, 0, 0, -1, 14.171, 19.84)"/>
<path fill="none" stroke-width="0.3985" stroke-linecap="butt" stroke-linejoin="miter" stroke="rgb(0%, 0%, 0%)" stroke-opacity="1" stroke-miterlimit="10" d="M -7.995219 -7.995938 L -3.542094 -7.995938 " transform="matrix(1, 0, 0, -1, 14.171, 19.84)"/>
</svg>
