<?xml version="1.0" encoding="UTF-8"?>
<svg xmlns="http://www.w3.org/2000/svg" xmlns:xlink="http://www.w3.org/1999/xlink" viewBox="0 0 62.757 28.224">
<path fill-rule="nonzero" fill="rgb(79.998779%, 100%, 79.998779%)" fill-opacity="1" stroke-width="0.3985" stroke-linecap="butt" stroke-linejoin="miter" stroke="rgb(0%, 0%, 0%)" stroke-opacity="1" stroke-miterlimit="10" d="M 5.667844 -0.00128125 C 5.667844 3.131531 3.132688 5.670594 -0.000125 5.670594 C -3.132937 5.670594 -5.668094 3.131531 -5.668094 -0.00128125 C -5.668094 -3.130187 -3.132937 -5.66925 -0.000125 -5.66925 C 3.132688 -5.66925 5.667844 -3.130187 5.667844 -0.00128125 Z M 5.667844 -0.00128125 " transform="matrix(1, 0, 0, -1, 16.297, 14.112)"/>
<path fill-rule="nonzero" fill="rgb(100%, 53.33252%, 53.33252%)" fill-opacity="1" stroke-width="0.3985" stroke-linecap="butt" stroke-linejoin="miter" stroke="rgb(0%, 0%, 0%)" stroke-opacity="1" stroke-miterlimit="10" d="M 5.668906 -0.00128125 C 5.668906 3.131531 3.129844 5.670594 0.0009375 5.670594 C -3.131875 5.670594 -5.670937 3.131531 -5.670937 -0.00128125 C -5.670937 -3.130187 -3.131875 -5.66925 0.0009375 -5.66925 C 3.129844 -5.66925 5.668906 -3.130187 5.668906 -0.00128125 Z M 5.668906 -0.00128125 " transform="matrix(1, 0, 0, -1, 46.46, 14.112)"/>
<path fill="none" stroke-width="0.3985" stroke-linecap="butt" stroke-linejoin="miter" stroke="rgb(0%, 0%, 0%)" stroke-opacity="1" stroke-miterlimit="10" d="M -25.202219 -0.00128125 L -20.749094 -0.00128125 " transform="matrix(1, 0, 0, -1, 31.378, 14.112)"/>
<path fill="none" stroke-width="0.3985" stroke-linecap="butt" stroke-linejoin="miter" stroke="rgb(0%, 0%, 0%)" stroke-opacity="1" stroke-miterlimit="10" d="M -10.170969 2.834656 C -3.299875 6.7995 3.301687 6.7995 10.172781 2.834656 " transform="matrix(1, 0, 0, -1, 31.378, 14.112)"/>
<path fill-rule="nonzero" fill="rgb(100%, 100%, 0%)" fill-opacity="1" stroke-width="0.3985" stroke-linecap="butt" stroke-linejoin="miter" stroke="rgb(0%, 0%, 0%)" stroke-opacity="1" stroke-miterlimit="10" d="M -2.124094 3.682313 L 2.125906 3.682313 L 2.125906 7.936219 L -2.124094 7.936219 Z M -2.124094 3.682313 " transform="matrix(1, 0, 0, -1, 31.378, 14.112)"/>
<path fill="none" stroke-width="0.3985" stroke-linecap="butt" stroke-linejoin="miter" stroke="rgb(0%, 0%, 0%)" stroke-opacity="1" stroke-miterlimit="10" d="M -10.170969 -2.833312 C -3.299875 -6.802062 3.301687 -6.802062 10.172781 -2.833312 " transform="matrix(1, 0, 0, -1, 31.378, 14.112)"/>
<path fill-rule="nonzero" fill="rgb(100%, 100%, 0%)" fill-opacity="1" stroke-width="0.3985" stroke-linecap="butt" stroke-linejoin="miter" stroke="rgb(0%, 0%, 0%)" stroke-opacity="1" stroke-miterlimit="10" d="M -2.124094 -7.934875 L 2.125906 -7.934875 L 2.125906 -3.684875 L -2.124094 -3.684875 Z M -2.124094 -7.934875 " transform="matrix(1, 0, 0, -1, 31.378, 14.112)"/>
<path fill="none" stroke-width="0.3985" stroke-linecap="butt" stroke-linejoin="miter" stroke="rgb(0%, 0%, 0%)" stroke-opacity="1" stroke-miterlimit="10" d="M 20.750906 -0.00128125 L 25.200125 -0.00128125 " transform="matrix(1, 0, 0, -1, 31.378, 14.112)"/>
</svg>
