<?xml version="1.0" encoding="UTF-8"?>
<svg xmlns="http://www.w3.org/2000/svg" xmlns:xlink="http://www.w3.org/1999/xlink" viewBox="0 0 32.595 23.692">
<defs>
<clipPath id="clip-0">
<path clip-rule="nonzero" d="M 4 0 L 28 0 L 28 23.691406 L 4 23.691406 Z M 4 0 "/>
</clipPath>
</defs>
<path fill-rule="nonzero" fill="rgb(79.998779%, 100%, 79.998779%)" fill-opacity="1" d="M 21.964844 11.847656 C 21.964844 8.714844 19.429688 6.175781 16.296875 6.175781 C 13.164062 6.175781 10.628906 8.714844 10.628906 11.847656 C 10.628906 14.976562 13.164062 17.515625 16.296875 17.515625 C 19.429688 17.515625 21.964844 14.976562 21.964844 11.847656 Z M 21.964844 11.847656 "/>
<g clip-path="url(#clip-0)">
<path fill="none" stroke-width="0.3985" stroke-linecap="butt" stroke-linejoin="miter" stroke="rgb(0%, 0%, 0%)" stroke-opacity="1" stroke-miterlimit="10" d="M 5.667844 -0.00165625 C 5.667844 3.131156 3.132687 5.670219 -0.000125 5.670219 C -3.132938 5.670219 -5.668094 3.131156 -5.668094 -0.00165625 C -5.668094 -3.130562 -3.132938 -5.669625 -0.000125 -5.669625 C 3.132687 -5.669625 5.667844 -3.130562 5.667844 -0.00165625 Z M 5.667844 -0.00165625 " transform="matrix(1, 0, 0, -1, 16.297, 11.846)"/>
</g>
<path fill="none" stroke-width="0.3985" stroke-linecap="butt" stroke-linejoin="miter" stroke="rgb(0%, 0%, 0%)" stroke-opacity="1" stroke-miterlimit="10" d="M -10.121219 -0.00165625 L -5.668094 -0.00165625 " transform="matrix(1, 0, 0, -1, 16.297, 11.846)"/>
<path fill="none" stroke-width="0.3985" stroke-linecap="butt" stroke-linejoin="miter" stroke="rgb(0%, 0%, 0%)" stroke-opacity="1" stroke-miterlimit="10" d="M 5.667844 -0.00165625 L 10.120969 -0.00165625 " transform="matrix(1, 0, 0, -1, 16.297, 11.846)"/>
</svg>
